<mxfile host="app.diagrams.net" modified="2023-05-03T01:38:12.232Z" agent="Mozilla/5.0 (Windows NT 10.0; Win64; x64) AppleWebKit/537.36 (KHTML, like Gecko) Chrome/112.0.0.0 Safari/537.36" etag="_otyIRdF5zr_xOzGaK3V" version="21.2.6" type="github">
  <diagram name="PÃ¡gina-1" id="cBHitbyBDrqBslc3NNqO">
    <mxGraphModel dx="1400" dy="605" grid="1" gridSize="10" guides="1" tooltips="1" connect="1" arrows="1" fold="1" page="1" pageScale="1" pageWidth="827" pageHeight="1169" math="0" shadow="0">
      <root>
        <mxCell id="0" />
        <mxCell id="1" parent="0" />
        <mxCell id="TGBSjRxM76Z1SRt9daBB-1" value="idChapter: int PK&lt;br&gt;&lt;br&gt;idBook: int FK&lt;br&gt;&lt;br&gt;number: int&lt;br&gt;&lt;br&gt;verses: int" style="whiteSpace=wrap;html=1;aspect=fixed;" vertex="1" parent="1">
          <mxGeometry x="190" y="130" width="140" height="140" as="geometry" />
        </mxCell>
        <mxCell id="TGBSjRxM76Z1SRt9daBB-2" value="Chapter&lt;span style=&quot;white-space: pre;&quot;&gt;	&lt;/span&gt;" style="rounded=0;whiteSpace=wrap;html=1;" vertex="1" parent="1">
          <mxGeometry x="190" y="110" width="140" height="30" as="geometry" />
        </mxCell>
        <mxCell id="TGBSjRxM76Z1SRt9daBB-4" value="idBook: int&amp;nbsp;&lt;br&gt;&lt;br&gt;chapter: int FK&lt;br&gt;&lt;br&gt;verses: int FK&lt;br&gt;&lt;br&gt;abbrev: string&lt;br&gt;&lt;br&gt;name: string&lt;br&gt;&lt;br&gt;author: string&lt;br&gt;&lt;br&gt;group: string&lt;br&gt;&lt;br&gt;version: string" style="whiteSpace=wrap;html=1;aspect=fixed;" vertex="1" parent="1">
          <mxGeometry x="490" y="140" width="250" height="250" as="geometry" />
        </mxCell>
        <mxCell id="TGBSjRxM76Z1SRt9daBB-5" value="Book" style="rounded=0;whiteSpace=wrap;html=1;" vertex="1" parent="1">
          <mxGeometry x="490" y="110" width="250" height="30" as="geometry" />
        </mxCell>
        <mxCell id="TGBSjRxM76Z1SRt9daBB-8" value="idVerses: int&lt;br&gt;&lt;br&gt;idBook: int FK&lt;br&gt;&lt;br&gt;IdChapter: int FK&lt;br&gt;&lt;br&gt;number: int FK&lt;br&gt;&lt;br&gt;text: string" style="rounded=0;whiteSpace=wrap;html=1;" vertex="1" parent="1">
          <mxGeometry x="190" y="405" width="140" height="180" as="geometry" />
        </mxCell>
        <mxCell id="TGBSjRxM76Z1SRt9daBB-31" style="edgeStyle=orthogonalEdgeStyle;rounded=0;orthogonalLoop=1;jettySize=auto;html=1;" edge="1" parent="1" source="TGBSjRxM76Z1SRt9daBB-9" target="TGBSjRxM76Z1SRt9daBB-8">
          <mxGeometry relative="1" as="geometry" />
        </mxCell>
        <mxCell id="TGBSjRxM76Z1SRt9daBB-9" value="Verses" style="rounded=0;whiteSpace=wrap;html=1;" vertex="1" parent="1">
          <mxGeometry x="190" y="375" width="140" height="30" as="geometry" />
        </mxCell>
        <mxCell id="TGBSjRxM76Z1SRt9daBB-14" value="1:1" style="text;html=1;align=center;verticalAlign=middle;resizable=0;points=[];autosize=1;strokeColor=none;fillColor=none;" vertex="1" parent="1">
          <mxGeometry x="500" y="80" width="40" height="30" as="geometry" />
        </mxCell>
        <mxCell id="TGBSjRxM76Z1SRt9daBB-15" value="0:N" style="text;html=1;align=center;verticalAlign=middle;resizable=0;points=[];autosize=1;strokeColor=none;fillColor=none;" vertex="1" parent="1">
          <mxGeometry x="270" y="80" width="40" height="30" as="geometry" />
        </mxCell>
        <mxCell id="TGBSjRxM76Z1SRt9daBB-18" value="" style="edgeStyle=entityRelationEdgeStyle;fontSize=12;html=1;endArrow=ERzeroToMany;startArrow=ERmandOne;rounded=0;exitX=0;exitY=0.5;exitDx=0;exitDy=0;entryX=1;entryY=0.5;entryDx=0;entryDy=0;" edge="1" parent="1" source="TGBSjRxM76Z1SRt9daBB-5" target="TGBSjRxM76Z1SRt9daBB-2">
          <mxGeometry width="100" height="100" relative="1" as="geometry">
            <mxPoint x="80" y="310" as="sourcePoint" />
            <mxPoint x="180" y="210" as="targetPoint" />
          </mxGeometry>
        </mxCell>
        <mxCell id="TGBSjRxM76Z1SRt9daBB-19" value="1:1" style="text;html=1;align=center;verticalAlign=middle;resizable=0;points=[];autosize=1;strokeColor=none;fillColor=none;" vertex="1" parent="1">
          <mxGeometry x="430" y="358" width="40" height="30" as="geometry" />
        </mxCell>
        <mxCell id="TGBSjRxM76Z1SRt9daBB-20" value="0:N" style="text;html=1;align=center;verticalAlign=middle;resizable=0;points=[];autosize=1;strokeColor=none;fillColor=none;" vertex="1" parent="1">
          <mxGeometry x="360" y="360" width="40" height="30" as="geometry" />
        </mxCell>
        <mxCell id="TGBSjRxM76Z1SRt9daBB-23" value="" style="edgeStyle=entityRelationEdgeStyle;fontSize=12;html=1;endArrow=ERzeroToMany;startArrow=ERmandOne;rounded=0;entryX=1;entryY=0.5;entryDx=0;entryDy=0;exitX=0;exitY=1;exitDx=0;exitDy=0;" edge="1" parent="1" source="TGBSjRxM76Z1SRt9daBB-4" target="TGBSjRxM76Z1SRt9daBB-9">
          <mxGeometry width="100" height="100" relative="1" as="geometry">
            <mxPoint x="420" y="340" as="sourcePoint" />
            <mxPoint x="520" y="240" as="targetPoint" />
          </mxGeometry>
        </mxCell>
        <mxCell id="TGBSjRxM76Z1SRt9daBB-24" value="1:1" style="text;html=1;align=center;verticalAlign=middle;resizable=0;points=[];autosize=1;strokeColor=none;fillColor=none;" vertex="1" parent="1">
          <mxGeometry x="290" y="280" width="40" height="30" as="geometry" />
        </mxCell>
        <mxCell id="TGBSjRxM76Z1SRt9daBB-25" value="0:N" style="text;html=1;align=center;verticalAlign=middle;resizable=0;points=[];autosize=1;strokeColor=none;fillColor=none;" vertex="1" parent="1">
          <mxGeometry x="290" y="328" width="40" height="30" as="geometry" />
        </mxCell>
        <mxCell id="TGBSjRxM76Z1SRt9daBB-30" value="" style="fontSize=12;html=1;endArrow=ERzeroToMany;startArrow=ERmandOne;rounded=0;exitX=0.5;exitY=1;exitDx=0;exitDy=0;entryX=0.5;entryY=0;entryDx=0;entryDy=0;" edge="1" parent="1" source="TGBSjRxM76Z1SRt9daBB-1" target="TGBSjRxM76Z1SRt9daBB-9">
          <mxGeometry width="100" height="100" relative="1" as="geometry">
            <mxPoint x="10" y="420" as="sourcePoint" />
            <mxPoint x="120" y="460" as="targetPoint" />
          </mxGeometry>
        </mxCell>
      </root>
    </mxGraphModel>
  </diagram>
</mxfile>
